# xmcd
#
# Track frame offsets: 
#        183
#        11985
#        22598
#        34330
#        45775
#        58468
#        72880
#        84563
#        94800
#        106728
#        115538
#        128190
#
# Disc length: 1860 seconds
#
# Revision: 6
# Processed by: cddbd v1.5.2PL0 Copyright (c) Steve Scherf et al.
# Submitted via: ExactAudioCopyFreeDBPlugin 1.0
#
DISCID=9107420c
DTITLE=Rufus Thomas - Walking the Dog
DYEAR=1963
DGENRE=Soul
TTITLE0=The Dog
TTITLE1=Mashed Potatoes
TTITLE2=Ooh-Poo-Pah-Doo
TTITLE3=You Said
TTITLE4=Boom Boom
TTITLE5=It's Aw'rite
TTITLE6=Walking the Dog
TTITLE7=Ya Ya
TTITLE8=Land of 1000 Dances
TTITLE9=Can Your Monkey Do the Dog
TTITLE10=Cause I Love You
TTITLE11=I Want to Be Loved
EXTD=
EXTT0=
EXTT1=
EXTT2=
EXTT3=
EXTT4=
EXTT5=
EXTT6=
EXTT7=
EXTT8=
EXTT9=
EXTT10=
EXTT11=
PLAYORDER=
